<svg width="20" height="22" viewBox="0 0 20 22" fill="none" xmlns="http://www.w3.org/2000/svg">
<path opacity="0.4" fill-rule="evenodd" clip-rule="evenodd" d="M5.33 0.544434H14.669C18.07 0.544434 19.99 2.61294 20 6.25991V16.2754C20 19.9213 18.07 21.9909 14.669 21.9909H5.33C1.929 21.9909 0 19.9213 0 16.2754V6.25991C0 2.61294 1.929 0.544434 5.33 0.544434ZM10.049 17.5513C10.48 17.5513 10.839 17.2082 10.879 16.7471V5.8201C10.919 5.48768 10.77 5.15419 10.5 4.97296C10.219 4.79067 9.87903 4.79067 9.61003 4.97296C9.33903 5.15419 9.19003 5.48768 9.21903 5.8201V16.7471C9.27003 17.2082 9.62903 17.5513 10.049 17.5513ZM14.65 17.5515C15.07 17.5515 15.429 17.2083 15.48 16.7472V13.23C15.509 12.8858 15.36 12.5652 15.089 12.3829C14.82 12.2006 14.48 12.2006 14.2 12.3829C13.929 12.5652 13.78 12.8858 13.82 13.23V16.7472C13.86 17.2083 14.219 17.5515 14.65 17.5515ZM6.21896 16.7474C6.17896 17.2085 5.81996 17.5516 5.38896 17.5516C4.95896 17.5516 4.59896 17.2085 4.55996 16.7474V9.33761C4.52996 9.00412 4.67896 8.67277 4.94996 8.49048C5.21896 8.30818 5.55996 8.30818 5.82996 8.49048C6.09896 8.67277 6.24996 9.00412 6.21896 9.33761V16.7474Z" fill="#030229"/>
</svg>
