<svg width="18" height="19" viewBox="0 0 18 19" fill="none" xmlns="http://www.w3.org/2000/svg">
<path fill-rule="evenodd" clip-rule="evenodd" d="M7.24596 8.72118C6.88138 8.72118 6.5931 9.02501 6.5931 9.40926C6.5931 9.78457 6.88138 10.0973 7.24596 10.0973H12.3332V14.3688C12.3332 16.5581 10.6459 18.3453 8.56016 18.3453H4.43104C2.35376 18.3453 0.666504 16.567 0.666504 14.3777V4.44977C0.666504 2.2515 2.36224 0.473236 4.43952 0.473236H8.57712C10.6459 0.473236 12.3332 2.2515 12.3332 4.44083V8.72118H7.24596ZM15.3584 6.31763L17.7917 8.91801C17.9167 9.05205 17.9834 9.22184 17.9834 9.40949C17.9834 9.58821 17.9167 9.76694 17.7917 9.89204L15.3584 12.4924C15.2334 12.6265 15.0667 12.6979 14.9084 12.6979C14.7417 12.6979 14.575 12.6265 14.45 12.4924C14.2 12.2243 14.2 11.7865 14.45 11.5184L15.7834 10.0976H12.3334V8.72142H15.7834L14.45 7.30059C14.2 7.03251 14.2 6.59465 14.45 6.32657C14.7 6.04955 15.1084 6.04955 15.3584 6.31763Z" fill="#03022955"/>
</svg>
