<svg width="15" height="16" viewBox="0 0 15 16" fill="none" xmlns="http://www.w3.org/2000/svg">
<path opacity="0.5" fill-rule="evenodd" clip-rule="evenodd" d="M0 7.00244C0 3.41124 2.88026 0.5 6.43323 0.5C8.13943 0.5 9.77575 1.18508 10.9822 2.40452C12.1887 3.62397 12.8665 5.27789 12.8665 7.00244C12.8665 10.5936 9.9862 13.5049 6.43323 13.5049C2.88026 13.5049 0 10.5936 0 7.00244ZM12.76 12.24L14.676 13.7866H14.7093C15.0969 14.1784 15.0969 14.8136 14.7093 15.2054C14.3216 15.5972 13.6932 15.5972 13.3055 15.2054L11.7155 13.3831C11.5652 13.2317 11.4807 13.0261 11.4807 12.8116C11.4807 12.5971 11.5652 12.3914 11.7155 12.24C12.0054 11.9521 12.4701 11.9521 12.76 12.24Z" fill="#030229"/>
</svg>
