<svg width="24" height="27" viewBox="0 0 24 27" fill="none" xmlns="http://www.w3.org/2000/svg">
<g opacity="0.4">
<path fill-rule="evenodd" clip-rule="evenodd" d="M20.4022 15.4326C20.7599 15.6364 21.0358 15.9581 21.23 16.2798C21.6081 16.9446 21.5775 17.7596 21.2096 18.478L20.4942 19.7648C20.1161 20.4511 19.4109 20.88 18.6853 20.88C18.3277 20.88 17.9291 20.7728 17.6021 20.5583C17.3364 20.376 17.0298 20.3117 16.7027 20.3117C15.691 20.3117 14.8428 21.2017 14.8121 22.2633C14.8121 23.4965 13.8719 24.4616 12.6967 24.4616H11.3068C10.1213 24.4616 9.18113 23.4965 9.18113 22.2633C9.16069 21.2017 8.31247 20.3117 7.30073 20.3117C6.96348 20.3117 6.6569 20.376 6.40141 20.5583C6.07438 20.7728 5.6656 20.88 5.31813 20.88C4.58232 20.88 3.87717 20.4511 3.49905 19.7648L2.7939 18.478C2.41577 17.781 2.39533 16.9446 2.77346 16.2798C2.93697 15.9581 3.24356 15.6364 3.59102 15.4326C3.87717 15.2825 4.06112 15.0359 4.23486 14.7463C4.74584 13.8241 4.43925 12.6124 3.57059 12.0655C2.55885 11.4543 2.23182 10.0925 2.81434 9.03087L3.49905 7.76553C4.09178 6.70393 5.35901 6.32861 6.38097 6.95056C7.27007 7.46528 8.42488 7.12213 8.94608 6.21066C9.10959 5.91041 9.20157 5.58871 9.18113 5.26701C9.16069 4.84881 9.27311 4.45205 9.46728 4.13035C9.8454 3.46551 10.5301 3.03658 11.2761 3.01514H12.7171C13.4734 3.01514 14.1581 3.46551 14.5362 4.13035C14.7201 4.45205 14.8428 4.84881 14.8121 5.26701C14.7917 5.58871 14.8837 5.91041 15.0472 6.21066C15.5684 7.12213 16.7232 7.46528 17.6225 6.95056C18.6342 6.32861 19.9117 6.70393 20.4942 7.76553L21.1789 9.03087C21.7716 10.0925 21.4446 11.4543 20.4227 12.0655C19.554 12.6124 19.2474 13.8241 19.7686 14.7463C19.9321 15.0359 20.1161 15.2825 20.4022 15.4326ZM9.10959 13.7491C9.10959 15.4326 10.4075 16.773 12.012 16.773C13.6164 16.773 14.8837 15.4326 14.8837 13.7491C14.8837 12.0655 13.6164 10.7144 12.012 10.7144C10.4075 10.7144 9.10959 12.0655 9.10959 13.7491Z" fill="#030229"/>
</g>
</svg>
